# xmcd
#
# Track frame offsets:
#	150
#	17545
#	34525
#	54037
#	74067
#	92856
#	115616
#	130388
#	150530
#	167906
#	186740
#	207600
#	226696
#	248079
#
# Disc length: 3549 seconds
#
# Revision: 0
# Processed by: cddbd v1.5.1PL0 Copyright (c) Steve Scherf et al.
# Submitted via: dBpowerAMP V4.0
#
DISCID=bb0ddb0e
DTITLE=Doobie Brothers - Divided Highway
DYEAR=1900
DGENRE=Country
TTITLE0=Divide Highway
TTITLE1=The doctor
TTITLE2=South of the border
TTITLE3=Tonight I am comming through (the border)
TTITLE4=Rollin'on
TTITLE5=Dangerous
TTITLE6=Take me to the highway
TTITLE7=Our love
TTITLE8=This train I'm on
TTITLE9=Too high a price
TTITLE10=Is love enough
TTITLE11=Showdown
TTITLE12=Something you said
TTITLE13=Need a little taste of love
EXTD=
EXTT0=
EXTT1=
EXTT2=
EXTT3=
EXTT4=
EXTT5=
EXTT6=
EXTT7=
EXTT8=
EXTT9=
EXTT10=
EXTT11=
EXTT12=
EXTT13=
PLAYORDER=
